<svg width="512" height="512" viewBox="0 0 512 512" fill="none" xmlns="http://www.w3.org/2000/svg">
  <defs>
    <linearGradient id="heroGradient" x1="256" y1="96" x2="256" y2="416" gradientUnits="userSpaceOnUse">
      <stop offset="0" stop-color="#FFF4DC"/>
      <stop offset="1" stop-color="#F4E0B9"/>
    </linearGradient>
  </defs>
  <rect width="512" height="512" rx="112" fill="#EEF1EF"/>
  <rect x="76" y="76" width="360" height="360" rx="104" fill="url(#heroGradient)"/>
  <rect x="84" y="84" width="344" height="344" rx="96" stroke="#DEC18F" stroke-width="16"/>
  <g transform="translate(112 112) scale(12)" stroke="#8E5A12" stroke-width="2.1" stroke-linecap="round" stroke-linejoin="round">
    <path d="M3 7V5a2 2 0 0 1 2-2h2"/>
    <path d="M17 3h2a2 2 0 0 1 2 2v2"/>
    <path d="M21 17v2a2 2 0 0 1-2 2h-2"/>
    <path d="M7 21H5a2 2 0 0 1-2-2v-2"/>
    <path d="M7 12h10"/>
  </g>
</svg>
